<svg viewBox="0 0 940 356" width="100%" role="img" aria-label="Per-frame time spread of each detector, normalised to its own median" xmlns="http://www.w3.org/2000/svg" font-family="Segoe UI,Helvetica,Arial,sans-serif">
<rect width="940" height="356" fill="#fff" rx="8"/>
<line x1="184.3" y1="20" x2="184.3" y2="294" stroke="#e2e5ea" stroke-dasharray="3 3"/>
<text x="184.3" y="332" font-size="12" fill="#5b6270" text-anchor="middle">0.5×</text>
<line x1="346.9" y1="20" x2="346.9" y2="294" stroke="#9aa2b1"/>
<text x="346.9" y="332" font-size="12" fill="#5b6270" text-anchor="middle">1×</text>
<line x1="509.5" y1="20" x2="509.5" y2="294" stroke="#e2e5ea" stroke-dasharray="3 3"/>
<text x="509.5" y="332" font-size="12" fill="#5b6270" text-anchor="middle">1.5×</text>
<line x1="672.1" y1="20" x2="672.1" y2="294" stroke="#e2e5ea" stroke-dasharray="3 3"/>
<text x="672.1" y="332" font-size="12" fill="#5b6270" text-anchor="middle">2×</text>
<line x1="834.7" y1="20" x2="834.7" y2="294" stroke="#e2e5ea" stroke-dasharray="3 3"/>
<text x="834.7" y="332" font-size="12" fill="#5b6270" text-anchor="middle">2.5×</text>
<text x="542" y="350" font-size="12.5" fill="#5b6270" text-anchor="middle">per-image time ÷ that method's own median</text>
<text x="154" y="54.0" font-size="13.5" fill="#1d2027" text-anchor="end" font-weight="700">SweepLSD (one-pass)</text>
<text x="154" y="69.0" font-size="11" fill="#5b6270" text-anchor="end">median 9.3 ms</text>
<line x1="222.4" y1="50.0" x2="556.6" y2="50.0" stroke="#7b2d8b" stroke-width="1.2" opacity=".55"/>
<circle cx="222.4" cy="44.9" r="2" fill="#7b2d8b" opacity=".33"/>
<circle cx="231.1" cy="54.2" r="2" fill="#7b2d8b" opacity=".33"/>
<circle cx="232.5" cy="52.5" r="2" fill="#7b2d8b" opacity=".33"/>
<circle cx="238.6" cy="50.9" r="2" fill="#7b2d8b" opacity=".33"/>
<circle cx="239.2" cy="49.1" r="2" fill="#7b2d8b" opacity=".33"/>
<circle cx="243.6" cy="47.5" r="2" fill="#7b2d8b" opacity=".33"/>
<circle cx="249.0" cy="45.8" r="2" fill="#7b2d8b" opacity=".33"/>
<circle cx="249.6" cy="55.1" r="2" fill="#7b2d8b" opacity=".33"/>
<circle cx="252.1" cy="53.4" r="2" fill="#7b2d8b" opacity=".33"/>
<circle cx="254.7" cy="51.7" r="2" fill="#7b2d8b" opacity=".33"/>
<circle cx="255.4" cy="50.0" r="2" fill="#7b2d8b" opacity=".33"/>
<circle cx="256.8" cy="48.3" r="2" fill="#7b2d8b" opacity=".33"/>
<circle cx="257.2" cy="46.6" r="2" fill="#7b2d8b" opacity=".33"/>
<circle cx="260.0" cy="44.9" r="2" fill="#7b2d8b" opacity=".33"/>
<circle cx="264.2" cy="54.2" r="2" fill="#7b2d8b" opacity=".33"/>
<circle cx="265.0" cy="52.5" r="2" fill="#7b2d8b" opacity=".33"/>
<circle cx="265.2" cy="50.9" r="2" fill="#7b2d8b" opacity=".33"/>
<circle cx="265.7" cy="49.1" r="2" fill="#7b2d8b" opacity=".33"/>
<circle cx="274.1" cy="47.5" r="2" fill="#7b2d8b" opacity=".33"/>
<circle cx="277.2" cy="45.8" r="2" fill="#7b2d8b" opacity=".33"/>
<circle cx="277.2" cy="55.1" r="2" fill="#7b2d8b" opacity=".33"/>
<circle cx="277.8" cy="53.4" r="2" fill="#7b2d8b" opacity=".33"/>
<circle cx="277.8" cy="51.7" r="2" fill="#7b2d8b" opacity=".33"/>
<circle cx="277.8" cy="50.0" r="2" fill="#7b2d8b" opacity=".33"/>
<circle cx="279.5" cy="48.3" r="2" fill="#7b2d8b" opacity=".33"/>
<circle cx="282.2" cy="46.6" r="2" fill="#7b2d8b" opacity=".33"/>
<circle cx="285.3" cy="44.9" r="2" fill="#7b2d8b" opacity=".33"/>
<circle cx="287.0" cy="54.2" r="2" fill="#7b2d8b" opacity=".33"/>
<circle cx="289.0" cy="52.5" r="2" fill="#7b2d8b" opacity=".33"/>
<circle cx="289.2" cy="50.9" r="2" fill="#7b2d8b" opacity=".33"/>
<circle cx="290.9" cy="49.1" r="2" fill="#7b2d8b" opacity=".33"/>
<circle cx="294.6" cy="47.5" r="2" fill="#7b2d8b" opacity=".33"/>
<circle cx="295.1" cy="45.8" r="2" fill="#7b2d8b" opacity=".33"/>
<circle cx="295.2" cy="55.1" r="2" fill="#7b2d8b" opacity=".33"/>
<circle cx="295.4" cy="53.4" r="2" fill="#7b2d8b" opacity=".33"/>
<circle cx="295.9" cy="51.7" r="2" fill="#7b2d8b" opacity=".33"/>
<circle cx="297.2" cy="50.0" r="2" fill="#7b2d8b" opacity=".33"/>
<circle cx="297.7" cy="48.3" r="2" fill="#7b2d8b" opacity=".33"/>
<circle cx="300.6" cy="46.6" r="2" fill="#7b2d8b" opacity=".33"/>
<circle cx="306.3" cy="44.9" r="2" fill="#7b2d8b" opacity=".33"/>
<circle cx="307.0" cy="54.2" r="2" fill="#7b2d8b" opacity=".33"/>
<circle cx="308.2" cy="52.5" r="2" fill="#7b2d8b" opacity=".33"/>
<circle cx="308.6" cy="50.9" r="2" fill="#7b2d8b" opacity=".33"/>
<circle cx="309.6" cy="49.1" r="2" fill="#7b2d8b" opacity=".33"/>
<circle cx="309.7" cy="47.5" r="2" fill="#7b2d8b" opacity=".33"/>
<circle cx="310.1" cy="45.8" r="2" fill="#7b2d8b" opacity=".33"/>
<circle cx="311.7" cy="55.1" r="2" fill="#7b2d8b" opacity=".33"/>
<circle cx="312.5" cy="53.4" r="2" fill="#7b2d8b" opacity=".33"/>
<circle cx="313.1" cy="51.7" r="2" fill="#7b2d8b" opacity=".33"/>
<circle cx="313.3" cy="50.0" r="2" fill="#7b2d8b" opacity=".33"/>
<circle cx="314.8" cy="48.3" r="2" fill="#7b2d8b" opacity=".33"/>
<circle cx="315.5" cy="46.6" r="2" fill="#7b2d8b" opacity=".33"/>
<circle cx="316.0" cy="44.9" r="2" fill="#7b2d8b" opacity=".33"/>
<circle cx="318.1" cy="54.2" r="2" fill="#7b2d8b" opacity=".33"/>
<circle cx="320.0" cy="52.5" r="2" fill="#7b2d8b" opacity=".33"/>
<circle cx="320.6" cy="50.9" r="2" fill="#7b2d8b" opacity=".33"/>
<circle cx="321.5" cy="49.1" r="2" fill="#7b2d8b" opacity=".33"/>
<circle cx="322.2" cy="47.5" r="2" fill="#7b2d8b" opacity=".33"/>
<circle cx="329.2" cy="45.8" r="2" fill="#7b2d8b" opacity=".33"/>
<circle cx="330.2" cy="55.1" r="2" fill="#7b2d8b" opacity=".33"/>
<circle cx="336.3" cy="53.4" r="2" fill="#7b2d8b" opacity=".33"/>
<circle cx="336.5" cy="51.7" r="2" fill="#7b2d8b" opacity=".33"/>
<circle cx="337.0" cy="50.0" r="2" fill="#7b2d8b" opacity=".33"/>
<circle cx="337.8" cy="48.3" r="2" fill="#7b2d8b" opacity=".33"/>
<circle cx="338.1" cy="46.6" r="2" fill="#7b2d8b" opacity=".33"/>
<circle cx="338.5" cy="44.9" r="2" fill="#7b2d8b" opacity=".33"/>
<circle cx="338.6" cy="54.2" r="2" fill="#7b2d8b" opacity=".33"/>
<circle cx="338.9" cy="52.5" r="2" fill="#7b2d8b" opacity=".33"/>
<circle cx="339.9" cy="50.9" r="2" fill="#7b2d8b" opacity=".33"/>
<circle cx="340.4" cy="49.1" r="2" fill="#7b2d8b" opacity=".33"/>
<circle cx="342.1" cy="47.5" r="2" fill="#7b2d8b" opacity=".33"/>
<circle cx="343.0" cy="45.8" r="2" fill="#7b2d8b" opacity=".33"/>
<circle cx="344.5" cy="55.1" r="2" fill="#7b2d8b" opacity=".33"/>
<circle cx="344.6" cy="53.4" r="2" fill="#7b2d8b" opacity=".33"/>
<circle cx="346.4" cy="51.7" r="2" fill="#7b2d8b" opacity=".33"/>
<circle cx="347.4" cy="50.0" r="2" fill="#7b2d8b" opacity=".33"/>
<circle cx="349.6" cy="48.3" r="2" fill="#7b2d8b" opacity=".33"/>
<circle cx="350.6" cy="46.6" r="2" fill="#7b2d8b" opacity=".33"/>
<circle cx="350.9" cy="44.9" r="2" fill="#7b2d8b" opacity=".33"/>
<circle cx="351.5" cy="54.2" r="2" fill="#7b2d8b" opacity=".33"/>
<circle cx="352.4" cy="52.5" r="2" fill="#7b2d8b" opacity=".33"/>
<circle cx="352.4" cy="50.9" r="2" fill="#7b2d8b" opacity=".33"/>
<circle cx="353.7" cy="49.1" r="2" fill="#7b2d8b" opacity=".33"/>
<circle cx="354.1" cy="47.5" r="2" fill="#7b2d8b" opacity=".33"/>
<circle cx="354.3" cy="45.8" r="2" fill="#7b2d8b" opacity=".33"/>
<circle cx="355.6" cy="55.1" r="2" fill="#7b2d8b" opacity=".33"/>
<circle cx="358.8" cy="53.4" r="2" fill="#7b2d8b" opacity=".33"/>
<circle cx="359.1" cy="51.7" r="2" fill="#7b2d8b" opacity=".33"/>
<circle cx="360.3" cy="50.0" r="2" fill="#7b2d8b" opacity=".33"/>
<circle cx="360.6" cy="48.3" r="2" fill="#7b2d8b" opacity=".33"/>
<circle cx="364.5" cy="46.6" r="2" fill="#7b2d8b" opacity=".33"/>
<circle cx="365.4" cy="44.9" r="2" fill="#7b2d8b" opacity=".33"/>
<circle cx="366.1" cy="54.2" r="2" fill="#7b2d8b" opacity=".33"/>
<circle cx="366.1" cy="52.5" r="2" fill="#7b2d8b" opacity=".33"/>
<circle cx="366.5" cy="50.9" r="2" fill="#7b2d8b" opacity=".33"/>
<circle cx="366.6" cy="49.1" r="2" fill="#7b2d8b" opacity=".33"/>
<circle cx="368.6" cy="47.5" r="2" fill="#7b2d8b" opacity=".33"/>
<circle cx="368.8" cy="45.8" r="2" fill="#7b2d8b" opacity=".33"/>
<circle cx="372.0" cy="55.1" r="2" fill="#7b2d8b" opacity=".33"/>
<circle cx="372.1" cy="53.4" r="2" fill="#7b2d8b" opacity=".33"/>
<circle cx="372.3" cy="51.7" r="2" fill="#7b2d8b" opacity=".33"/>
<circle cx="373.0" cy="50.0" r="2" fill="#7b2d8b" opacity=".33"/>
<circle cx="373.6" cy="48.3" r="2" fill="#7b2d8b" opacity=".33"/>
<circle cx="374.0" cy="46.6" r="2" fill="#7b2d8b" opacity=".33"/>
<circle cx="377.4" cy="44.9" r="2" fill="#7b2d8b" opacity=".33"/>
<circle cx="384.1" cy="54.2" r="2" fill="#7b2d8b" opacity=".33"/>
<circle cx="386.6" cy="52.5" r="2" fill="#7b2d8b" opacity=".33"/>
<circle cx="389.4" cy="50.9" r="2" fill="#7b2d8b" opacity=".33"/>
<circle cx="390.0" cy="49.1" r="2" fill="#7b2d8b" opacity=".33"/>
<circle cx="393.6" cy="47.5" r="2" fill="#7b2d8b" opacity=".33"/>
<circle cx="393.8" cy="45.8" r="2" fill="#7b2d8b" opacity=".33"/>
<circle cx="398.4" cy="55.1" r="2" fill="#7b2d8b" opacity=".33"/>
<circle cx="403.3" cy="53.4" r="2" fill="#7b2d8b" opacity=".33"/>
<circle cx="403.9" cy="51.7" r="2" fill="#7b2d8b" opacity=".33"/>
<circle cx="404.9" cy="50.0" r="2" fill="#7b2d8b" opacity=".33"/>
<circle cx="405.1" cy="48.3" r="2" fill="#7b2d8b" opacity=".33"/>
<circle cx="410.5" cy="46.6" r="2" fill="#7b2d8b" opacity=".33"/>
<circle cx="410.7" cy="44.9" r="2" fill="#7b2d8b" opacity=".33"/>
<circle cx="413.3" cy="54.2" r="2" fill="#7b2d8b" opacity=".33"/>
<circle cx="414.4" cy="52.5" r="2" fill="#7b2d8b" opacity=".33"/>
<circle cx="415.5" cy="50.9" r="2" fill="#7b2d8b" opacity=".33"/>
<circle cx="416.8" cy="49.1" r="2" fill="#7b2d8b" opacity=".33"/>
<circle cx="418.5" cy="47.5" r="2" fill="#7b2d8b" opacity=".33"/>
<circle cx="419.4" cy="45.8" r="2" fill="#7b2d8b" opacity=".33"/>
<circle cx="422.5" cy="55.1" r="2" fill="#7b2d8b" opacity=".33"/>
<circle cx="422.6" cy="53.4" r="2" fill="#7b2d8b" opacity=".33"/>
<circle cx="423.5" cy="51.7" r="2" fill="#7b2d8b" opacity=".33"/>
<circle cx="423.6" cy="50.0" r="2" fill="#7b2d8b" opacity=".33"/>
<circle cx="424.1" cy="48.3" r="2" fill="#7b2d8b" opacity=".33"/>
<circle cx="424.5" cy="46.6" r="2" fill="#7b2d8b" opacity=".33"/>
<circle cx="428.7" cy="44.9" r="2" fill="#7b2d8b" opacity=".33"/>
<circle cx="429.7" cy="54.2" r="2" fill="#7b2d8b" opacity=".33"/>
<circle cx="430.5" cy="52.5" r="2" fill="#7b2d8b" opacity=".33"/>
<circle cx="434.2" cy="50.9" r="2" fill="#7b2d8b" opacity=".33"/>
<circle cx="440.2" cy="49.1" r="2" fill="#7b2d8b" opacity=".33"/>
<circle cx="440.3" cy="47.5" r="2" fill="#7b2d8b" opacity=".33"/>
<circle cx="440.3" cy="45.8" r="2" fill="#7b2d8b" opacity=".33"/>
<circle cx="445.6" cy="55.1" r="2" fill="#7b2d8b" opacity=".33"/>
<circle cx="448.8" cy="53.4" r="2" fill="#7b2d8b" opacity=".33"/>
<circle cx="491.3" cy="51.7" r="2" fill="#7b2d8b" opacity=".33"/>
<circle cx="491.3" cy="50.0" r="2" fill="#7b2d8b" opacity=".33"/>
<circle cx="497.6" cy="48.3" r="2" fill="#7b2d8b" opacity=".33"/>
<circle cx="502.7" cy="46.6" r="2" fill="#7b2d8b" opacity=".33"/>
<circle cx="504.0" cy="44.9" r="2" fill="#7b2d8b" opacity=".33"/>
<circle cx="507.1" cy="54.2" r="2" fill="#7b2d8b" opacity=".33"/>
<circle cx="516.7" cy="52.5" r="2" fill="#7b2d8b" opacity=".33"/>
<circle cx="521.7" cy="50.9" r="2" fill="#7b2d8b" opacity=".33"/>
<circle cx="523.5" cy="49.1" r="2" fill="#7b2d8b" opacity=".33"/>
<circle cx="533.8" cy="47.5" r="2" fill="#7b2d8b" opacity=".33"/>
<circle cx="556.6" cy="45.8" r="2" fill="#7b2d8b" opacity=".33"/>
<rect x="297.7" y="41.5" width="105.6" height="17" fill="#7b2d8b" fill-opacity=".18" stroke="#7b2d8b" stroke-width="1.1" rx="2"/>
<line x1="346.9" y1="40.0" x2="346.9" y2="60.0" stroke="#7b2d8b" stroke-width="2.6"/>
<line x1="556.6" y1="44.0" x2="556.6" y2="56.0" stroke="#7b2d8b" stroke-width="1.6"/>
<text x="564.6" y="54.0" font-size="11.5" fill="#7b2d8b" text-anchor="start" stroke="#fff" stroke-width="3.4" paint-order="stroke" font-weight="700">CV 22%  ·  worst 15.3 ms (1.65×)</text>
<text x="154" y="124.0" font-size="13.5" fill="#1d2027" text-anchor="end" >ELSED</text>
<text x="154" y="139.0" font-size="11" fill="#5b6270" text-anchor="end">median 27.0 ms</text>
<line x1="168.0" y1="120.0" x2="840.9" y2="120.0" stroke="#2f7ab8" stroke-width="1.2" opacity=".55"/>
<circle cx="168.0" cy="114.9" r="2" fill="#2f7ab8" opacity=".33"/>
<circle cx="168.0" cy="124.2" r="2" fill="#2f7ab8" opacity=".33"/>
<circle cx="168.0" cy="122.5" r="2" fill="#2f7ab8" opacity=".33"/>
<circle cx="170.0" cy="120.8" r="2" fill="#2f7ab8" opacity=".33"/>
<circle cx="176.2" cy="119.2" r="2" fill="#2f7ab8" opacity=".33"/>
<circle cx="178.6" cy="117.5" r="2" fill="#2f7ab8" opacity=".33"/>
<circle cx="179.4" cy="115.8" r="2" fill="#2f7ab8" opacity=".33"/>
<circle cx="181.7" cy="125.1" r="2" fill="#2f7ab8" opacity=".33"/>
<circle cx="193.6" cy="123.4" r="2" fill="#2f7ab8" opacity=".33"/>
<circle cx="198.3" cy="121.7" r="2" fill="#2f7ab8" opacity=".33"/>
<circle cx="198.8" cy="120.0" r="2" fill="#2f7ab8" opacity=".33"/>
<circle cx="200.5" cy="118.3" r="2" fill="#2f7ab8" opacity=".33"/>
<circle cx="201.3" cy="116.6" r="2" fill="#2f7ab8" opacity=".33"/>
<circle cx="204.3" cy="114.9" r="2" fill="#2f7ab8" opacity=".33"/>
<circle cx="209.1" cy="124.2" r="2" fill="#2f7ab8" opacity=".33"/>
<circle cx="209.5" cy="122.5" r="2" fill="#2f7ab8" opacity=".33"/>
<circle cx="210.6" cy="120.8" r="2" fill="#2f7ab8" opacity=".33"/>
<circle cx="212.6" cy="119.2" r="2" fill="#2f7ab8" opacity=".33"/>
<circle cx="222.2" cy="117.5" r="2" fill="#2f7ab8" opacity=".33"/>
<circle cx="222.4" cy="115.8" r="2" fill="#2f7ab8" opacity=".33"/>
<circle cx="223.1" cy="125.1" r="2" fill="#2f7ab8" opacity=".33"/>
<circle cx="227.4" cy="123.4" r="2" fill="#2f7ab8" opacity=".33"/>
<circle cx="228.7" cy="121.7" r="2" fill="#2f7ab8" opacity=".33"/>
<circle cx="231.2" cy="120.0" r="2" fill="#2f7ab8" opacity=".33"/>
<circle cx="235.0" cy="118.3" r="2" fill="#2f7ab8" opacity=".33"/>
<circle cx="235.9" cy="116.6" r="2" fill="#2f7ab8" opacity=".33"/>
<circle cx="240.9" cy="114.9" r="2" fill="#2f7ab8" opacity=".33"/>
<circle cx="243.1" cy="124.2" r="2" fill="#2f7ab8" opacity=".33"/>
<circle cx="243.9" cy="122.5" r="2" fill="#2f7ab8" opacity=".33"/>
<circle cx="245.4" cy="120.8" r="2" fill="#2f7ab8" opacity=".33"/>
<circle cx="248.6" cy="119.2" r="2" fill="#2f7ab8" opacity=".33"/>
<circle cx="250.6" cy="117.5" r="2" fill="#2f7ab8" opacity=".33"/>
<circle cx="255.5" cy="115.8" r="2" fill="#2f7ab8" opacity=".33"/>
<circle cx="260.3" cy="125.1" r="2" fill="#2f7ab8" opacity=".33"/>
<circle cx="264.3" cy="123.4" r="2" fill="#2f7ab8" opacity=".33"/>
<circle cx="265.6" cy="121.7" r="2" fill="#2f7ab8" opacity=".33"/>
<circle cx="266.9" cy="120.0" r="2" fill="#2f7ab8" opacity=".33"/>
<circle cx="267.5" cy="118.3" r="2" fill="#2f7ab8" opacity=".33"/>
<circle cx="268.8" cy="116.6" r="2" fill="#2f7ab8" opacity=".33"/>
<circle cx="275.3" cy="114.9" r="2" fill="#2f7ab8" opacity=".33"/>
<circle cx="276.5" cy="124.2" r="2" fill="#2f7ab8" opacity=".33"/>
<circle cx="277.9" cy="122.5" r="2" fill="#2f7ab8" opacity=".33"/>
<circle cx="278.8" cy="120.8" r="2" fill="#2f7ab8" opacity=".33"/>
<circle cx="279.2" cy="119.2" r="2" fill="#2f7ab8" opacity=".33"/>
<circle cx="279.5" cy="117.5" r="2" fill="#2f7ab8" opacity=".33"/>
<circle cx="283.9" cy="115.8" r="2" fill="#2f7ab8" opacity=".33"/>
<circle cx="284.1" cy="125.1" r="2" fill="#2f7ab8" opacity=".33"/>
<circle cx="285.5" cy="123.4" r="2" fill="#2f7ab8" opacity=".33"/>
<circle cx="287.3" cy="121.7" r="2" fill="#2f7ab8" opacity=".33"/>
<circle cx="288.9" cy="120.0" r="2" fill="#2f7ab8" opacity=".33"/>
<circle cx="289.9" cy="118.3" r="2" fill="#2f7ab8" opacity=".33"/>
<circle cx="290.2" cy="116.6" r="2" fill="#2f7ab8" opacity=".33"/>
<circle cx="291.3" cy="114.9" r="2" fill="#2f7ab8" opacity=".33"/>
<circle cx="292.7" cy="124.2" r="2" fill="#2f7ab8" opacity=".33"/>
<circle cx="295.6" cy="122.5" r="2" fill="#2f7ab8" opacity=".33"/>
<circle cx="296.9" cy="120.8" r="2" fill="#2f7ab8" opacity=".33"/>
<circle cx="300.6" cy="119.2" r="2" fill="#2f7ab8" opacity=".33"/>
<circle cx="301.2" cy="117.5" r="2" fill="#2f7ab8" opacity=".33"/>
<circle cx="301.8" cy="115.8" r="2" fill="#2f7ab8" opacity=".33"/>
<circle cx="304.0" cy="125.1" r="2" fill="#2f7ab8" opacity=".33"/>
<circle cx="309.1" cy="123.4" r="2" fill="#2f7ab8" opacity=".33"/>
<circle cx="309.4" cy="121.7" r="2" fill="#2f7ab8" opacity=".33"/>
<circle cx="310.0" cy="120.0" r="2" fill="#2f7ab8" opacity=".33"/>
<circle cx="310.9" cy="118.3" r="2" fill="#2f7ab8" opacity=".33"/>
<circle cx="311.4" cy="116.6" r="2" fill="#2f7ab8" opacity=".33"/>
<circle cx="311.5" cy="114.9" r="2" fill="#2f7ab8" opacity=".33"/>
<circle cx="317.7" cy="124.2" r="2" fill="#2f7ab8" opacity=".33"/>
<circle cx="320.4" cy="122.5" r="2" fill="#2f7ab8" opacity=".33"/>
<circle cx="333.4" cy="120.8" r="2" fill="#2f7ab8" opacity=".33"/>
<circle cx="336.3" cy="119.2" r="2" fill="#2f7ab8" opacity=".33"/>
<circle cx="336.8" cy="117.5" r="2" fill="#2f7ab8" opacity=".33"/>
<circle cx="338.5" cy="115.8" r="2" fill="#2f7ab8" opacity=".33"/>
<circle cx="341.4" cy="125.1" r="2" fill="#2f7ab8" opacity=".33"/>
<circle cx="344.1" cy="123.4" r="2" fill="#2f7ab8" opacity=".33"/>
<circle cx="346.7" cy="121.7" r="2" fill="#2f7ab8" opacity=".33"/>
<circle cx="347.1" cy="120.0" r="2" fill="#2f7ab8" opacity=".33"/>
<circle cx="349.9" cy="118.3" r="2" fill="#2f7ab8" opacity=".33"/>
<circle cx="351.7" cy="116.6" r="2" fill="#2f7ab8" opacity=".33"/>
<circle cx="352.1" cy="114.9" r="2" fill="#2f7ab8" opacity=".33"/>
<circle cx="353.1" cy="124.2" r="2" fill="#2f7ab8" opacity=".33"/>
<circle cx="354.5" cy="122.5" r="2" fill="#2f7ab8" opacity=".33"/>
<circle cx="354.7" cy="120.8" r="2" fill="#2f7ab8" opacity=".33"/>
<circle cx="355.3" cy="119.2" r="2" fill="#2f7ab8" opacity=".33"/>
<circle cx="359.7" cy="117.5" r="2" fill="#2f7ab8" opacity=".33"/>
<circle cx="361.8" cy="115.8" r="2" fill="#2f7ab8" opacity=".33"/>
<circle cx="362.8" cy="125.1" r="2" fill="#2f7ab8" opacity=".33"/>
<circle cx="366.3" cy="123.4" r="2" fill="#2f7ab8" opacity=".33"/>
<circle cx="368.3" cy="121.7" r="2" fill="#2f7ab8" opacity=".33"/>
<circle cx="369.7" cy="120.0" r="2" fill="#2f7ab8" opacity=".33"/>
<circle cx="370.9" cy="118.3" r="2" fill="#2f7ab8" opacity=".33"/>
<circle cx="375.0" cy="116.6" r="2" fill="#2f7ab8" opacity=".33"/>
<circle cx="377.6" cy="114.9" r="2" fill="#2f7ab8" opacity=".33"/>
<circle cx="380.5" cy="124.2" r="2" fill="#2f7ab8" opacity=".33"/>
<circle cx="384.4" cy="122.5" r="2" fill="#2f7ab8" opacity=".33"/>
<circle cx="384.9" cy="120.8" r="2" fill="#2f7ab8" opacity=".33"/>
<circle cx="391.0" cy="119.2" r="2" fill="#2f7ab8" opacity=".33"/>
<circle cx="395.2" cy="117.5" r="2" fill="#2f7ab8" opacity=".33"/>
<circle cx="398.5" cy="115.8" r="2" fill="#2f7ab8" opacity=".33"/>
<circle cx="401.2" cy="125.1" r="2" fill="#2f7ab8" opacity=".33"/>
<circle cx="401.4" cy="123.4" r="2" fill="#2f7ab8" opacity=".33"/>
<circle cx="402.0" cy="121.7" r="2" fill="#2f7ab8" opacity=".33"/>
<circle cx="403.1" cy="120.0" r="2" fill="#2f7ab8" opacity=".33"/>
<circle cx="403.5" cy="118.3" r="2" fill="#2f7ab8" opacity=".33"/>
<circle cx="406.7" cy="116.6" r="2" fill="#2f7ab8" opacity=".33"/>
<circle cx="409.5" cy="114.9" r="2" fill="#2f7ab8" opacity=".33"/>
<circle cx="415.4" cy="124.2" r="2" fill="#2f7ab8" opacity=".33"/>
<circle cx="416.0" cy="122.5" r="2" fill="#2f7ab8" opacity=".33"/>
<circle cx="417.8" cy="120.8" r="2" fill="#2f7ab8" opacity=".33"/>
<circle cx="419.2" cy="119.2" r="2" fill="#2f7ab8" opacity=".33"/>
<circle cx="421.6" cy="117.5" r="2" fill="#2f7ab8" opacity=".33"/>
<circle cx="429.0" cy="115.8" r="2" fill="#2f7ab8" opacity=".33"/>
<circle cx="429.4" cy="125.1" r="2" fill="#2f7ab8" opacity=".33"/>
<circle cx="431.6" cy="123.4" r="2" fill="#2f7ab8" opacity=".33"/>
<circle cx="437.1" cy="121.7" r="2" fill="#2f7ab8" opacity=".33"/>
<circle cx="437.6" cy="120.0" r="2" fill="#2f7ab8" opacity=".33"/>
<circle cx="440.8" cy="118.3" r="2" fill="#2f7ab8" opacity=".33"/>
<circle cx="447.3" cy="116.6" r="2" fill="#2f7ab8" opacity=".33"/>
<circle cx="448.6" cy="114.9" r="2" fill="#2f7ab8" opacity=".33"/>
<circle cx="450.4" cy="124.2" r="2" fill="#2f7ab8" opacity=".33"/>
<circle cx="450.4" cy="122.5" r="2" fill="#2f7ab8" opacity=".33"/>
<circle cx="453.2" cy="120.8" r="2" fill="#2f7ab8" opacity=".33"/>
<circle cx="454.0" cy="119.2" r="2" fill="#2f7ab8" opacity=".33"/>
<circle cx="454.0" cy="117.5" r="2" fill="#2f7ab8" opacity=".33"/>
<circle cx="455.8" cy="115.8" r="2" fill="#2f7ab8" opacity=".33"/>
<circle cx="475.4" cy="125.1" r="2" fill="#2f7ab8" opacity=".33"/>
<circle cx="486.2" cy="123.4" r="2" fill="#2f7ab8" opacity=".33"/>
<circle cx="497.2" cy="121.7" r="2" fill="#2f7ab8" opacity=".33"/>
<circle cx="497.9" cy="120.0" r="2" fill="#2f7ab8" opacity=".33"/>
<circle cx="499.0" cy="118.3" r="2" fill="#2f7ab8" opacity=".33"/>
<circle cx="501.4" cy="116.6" r="2" fill="#2f7ab8" opacity=".33"/>
<circle cx="506.1" cy="114.9" r="2" fill="#2f7ab8" opacity=".33"/>
<circle cx="507.1" cy="124.2" r="2" fill="#2f7ab8" opacity=".33"/>
<circle cx="520.3" cy="122.5" r="2" fill="#2f7ab8" opacity=".33"/>
<circle cx="521.0" cy="120.8" r="2" fill="#2f7ab8" opacity=".33"/>
<circle cx="525.5" cy="119.2" r="2" fill="#2f7ab8" opacity=".33"/>
<circle cx="528.4" cy="117.5" r="2" fill="#2f7ab8" opacity=".33"/>
<circle cx="530.9" cy="115.8" r="2" fill="#2f7ab8" opacity=".33"/>
<circle cx="537.6" cy="125.1" r="2" fill="#2f7ab8" opacity=".33"/>
<circle cx="538.5" cy="123.4" r="2" fill="#2f7ab8" opacity=".33"/>
<circle cx="557.4" cy="121.7" r="2" fill="#2f7ab8" opacity=".33"/>
<circle cx="568.2" cy="120.0" r="2" fill="#2f7ab8" opacity=".33"/>
<circle cx="659.2" cy="118.3" r="2" fill="#2f7ab8" opacity=".33"/>
<circle cx="701.5" cy="116.6" r="2" fill="#2f7ab8" opacity=".33"/>
<circle cx="709.2" cy="114.9" r="2" fill="#2f7ab8" opacity=".33"/>
<circle cx="717.2" cy="124.2" r="2" fill="#2f7ab8" opacity=".33"/>
<circle cx="744.4" cy="122.5" r="2" fill="#2f7ab8" opacity=".33"/>
<circle cx="765.7" cy="120.8" r="2" fill="#2f7ab8" opacity=".33"/>
<circle cx="789.4" cy="119.2" r="2" fill="#2f7ab8" opacity=".33"/>
<circle cx="809.0" cy="117.5" r="2" fill="#2f7ab8" opacity=".33"/>
<circle cx="840.9" cy="115.8" r="2" fill="#2f7ab8" opacity=".33"/>
<rect x="267.5" y="111.5" width="164.1" height="17" fill="#2f7ab8" fill-opacity=".18" stroke="#2f7ab8" stroke-width="1.1" rx="2"/>
<line x1="346.9" y1="110.0" x2="346.9" y2="130.0" stroke="#2f7ab8" stroke-width="2.6"/>
<line x1="840.9" y1="114.0" x2="840.9" y2="126.0" stroke="#2f7ab8" stroke-width="1.6"/>
<text x="832.9" y="124.0" font-size="11.5" fill="#2f7ab8" text-anchor="end" stroke="#fff" stroke-width="3.4" paint-order="stroke" >CV 41%  ·  worst 68.1 ms (2.52×)</text>
<text x="154" y="194.0" font-size="13.5" fill="#1d2027" text-anchor="end" >EDLines (ED_Lib)</text>
<text x="154" y="209.0" font-size="11" fill="#5b6270" text-anchor="end">median 37.1 ms</text>
<line x1="211.0" y1="190.0" x2="831.5" y2="190.0" stroke="#3f9a63" stroke-width="1.2" opacity=".55"/>
<circle cx="211.0" cy="184.9" r="2" fill="#3f9a63" opacity=".33"/>
<circle cx="212.5" cy="194.2" r="2" fill="#3f9a63" opacity=".33"/>
<circle cx="212.9" cy="192.6" r="2" fill="#3f9a63" opacity=".33"/>
<circle cx="215.7" cy="190.8" r="2" fill="#3f9a63" opacity=".33"/>
<circle cx="218.9" cy="189.2" r="2" fill="#3f9a63" opacity=".33"/>
<circle cx="220.8" cy="187.4" r="2" fill="#3f9a63" opacity=".33"/>
<circle cx="222.5" cy="185.8" r="2" fill="#3f9a63" opacity=".33"/>
<circle cx="224.9" cy="195.1" r="2" fill="#3f9a63" opacity=".33"/>
<circle cx="226.0" cy="193.4" r="2" fill="#3f9a63" opacity=".33"/>
<circle cx="230.7" cy="191.7" r="2" fill="#3f9a63" opacity=".33"/>
<circle cx="236.5" cy="190.0" r="2" fill="#3f9a63" opacity=".33"/>
<circle cx="238.2" cy="188.3" r="2" fill="#3f9a63" opacity=".33"/>
<circle cx="239.0" cy="186.6" r="2" fill="#3f9a63" opacity=".33"/>
<circle cx="239.6" cy="184.9" r="2" fill="#3f9a63" opacity=".33"/>
<circle cx="242.7" cy="194.2" r="2" fill="#3f9a63" opacity=".33"/>
<circle cx="247.8" cy="192.6" r="2" fill="#3f9a63" opacity=".33"/>
<circle cx="252.4" cy="190.8" r="2" fill="#3f9a63" opacity=".33"/>
<circle cx="253.3" cy="189.2" r="2" fill="#3f9a63" opacity=".33"/>
<circle cx="255.7" cy="187.4" r="2" fill="#3f9a63" opacity=".33"/>
<circle cx="256.3" cy="185.8" r="2" fill="#3f9a63" opacity=".33"/>
<circle cx="257.0" cy="195.1" r="2" fill="#3f9a63" opacity=".33"/>
<circle cx="258.3" cy="193.4" r="2" fill="#3f9a63" opacity=".33"/>
<circle cx="262.7" cy="191.7" r="2" fill="#3f9a63" opacity=".33"/>
<circle cx="264.0" cy="190.0" r="2" fill="#3f9a63" opacity=".33"/>
<circle cx="264.7" cy="188.3" r="2" fill="#3f9a63" opacity=".33"/>
<circle cx="267.1" cy="186.6" r="2" fill="#3f9a63" opacity=".33"/>
<circle cx="269.6" cy="184.9" r="2" fill="#3f9a63" opacity=".33"/>
<circle cx="271.5" cy="194.2" r="2" fill="#3f9a63" opacity=".33"/>
<circle cx="275.7" cy="192.6" r="2" fill="#3f9a63" opacity=".33"/>
<circle cx="279.0" cy="190.8" r="2" fill="#3f9a63" opacity=".33"/>
<circle cx="279.2" cy="189.2" r="2" fill="#3f9a63" opacity=".33"/>
<circle cx="279.5" cy="187.4" r="2" fill="#3f9a63" opacity=".33"/>
<circle cx="280.5" cy="185.8" r="2" fill="#3f9a63" opacity=".33"/>
<circle cx="288.5" cy="195.1" r="2" fill="#3f9a63" opacity=".33"/>
<circle cx="289.4" cy="193.4" r="2" fill="#3f9a63" opacity=".33"/>
<circle cx="289.7" cy="191.7" r="2" fill="#3f9a63" opacity=".33"/>
<circle cx="291.4" cy="190.0" r="2" fill="#3f9a63" opacity=".33"/>
<circle cx="291.8" cy="188.3" r="2" fill="#3f9a63" opacity=".33"/>
<circle cx="293.1" cy="186.6" r="2" fill="#3f9a63" opacity=".33"/>
<circle cx="294.3" cy="184.9" r="2" fill="#3f9a63" opacity=".33"/>
<circle cx="294.4" cy="194.2" r="2" fill="#3f9a63" opacity=".33"/>
<circle cx="294.9" cy="192.6" r="2" fill="#3f9a63" opacity=".33"/>
<circle cx="295.2" cy="190.8" r="2" fill="#3f9a63" opacity=".33"/>
<circle cx="298.4" cy="189.2" r="2" fill="#3f9a63" opacity=".33"/>
<circle cx="298.9" cy="187.4" r="2" fill="#3f9a63" opacity=".33"/>
<circle cx="299.5" cy="185.8" r="2" fill="#3f9a63" opacity=".33"/>
<circle cx="299.5" cy="195.1" r="2" fill="#3f9a63" opacity=".33"/>
<circle cx="300.7" cy="193.4" r="2" fill="#3f9a63" opacity=".33"/>
<circle cx="301.2" cy="191.7" r="2" fill="#3f9a63" opacity=".33"/>
<circle cx="301.4" cy="190.0" r="2" fill="#3f9a63" opacity=".33"/>
<circle cx="307.5" cy="188.3" r="2" fill="#3f9a63" opacity=".33"/>
<circle cx="308.7" cy="186.6" r="2" fill="#3f9a63" opacity=".33"/>
<circle cx="310.8" cy="184.9" r="2" fill="#3f9a63" opacity=".33"/>
<circle cx="311.9" cy="194.2" r="2" fill="#3f9a63" opacity=".33"/>
<circle cx="313.3" cy="192.6" r="2" fill="#3f9a63" opacity=".33"/>
<circle cx="317.2" cy="190.8" r="2" fill="#3f9a63" opacity=".33"/>
<circle cx="317.2" cy="189.2" r="2" fill="#3f9a63" opacity=".33"/>
<circle cx="318.3" cy="187.4" r="2" fill="#3f9a63" opacity=".33"/>
<circle cx="319.8" cy="185.8" r="2" fill="#3f9a63" opacity=".33"/>
<circle cx="320.9" cy="195.1" r="2" fill="#3f9a63" opacity=".33"/>
<circle cx="321.4" cy="193.4" r="2" fill="#3f9a63" opacity=".33"/>
<circle cx="322.5" cy="191.7" r="2" fill="#3f9a63" opacity=".33"/>
<circle cx="325.0" cy="190.0" r="2" fill="#3f9a63" opacity=".33"/>
<circle cx="325.4" cy="188.3" r="2" fill="#3f9a63" opacity=".33"/>
<circle cx="334.4" cy="186.6" r="2" fill="#3f9a63" opacity=".33"/>
<circle cx="338.8" cy="184.9" r="2" fill="#3f9a63" opacity=".33"/>
<circle cx="339.7" cy="194.2" r="2" fill="#3f9a63" opacity=".33"/>
<circle cx="342.1" cy="192.6" r="2" fill="#3f9a63" opacity=".33"/>
<circle cx="342.2" cy="190.8" r="2" fill="#3f9a63" opacity=".33"/>
<circle cx="342.7" cy="189.2" r="2" fill="#3f9a63" opacity=".33"/>
<circle cx="342.9" cy="187.4" r="2" fill="#3f9a63" opacity=".33"/>
<circle cx="344.0" cy="185.8" r="2" fill="#3f9a63" opacity=".33"/>
<circle cx="344.2" cy="195.1" r="2" fill="#3f9a63" opacity=".33"/>
<circle cx="346.0" cy="193.4" r="2" fill="#3f9a63" opacity=".33"/>
<circle cx="346.8" cy="191.7" r="2" fill="#3f9a63" opacity=".33"/>
<circle cx="347.0" cy="190.0" r="2" fill="#3f9a63" opacity=".33"/>
<circle cx="348.0" cy="188.3" r="2" fill="#3f9a63" opacity=".33"/>
<circle cx="348.9" cy="186.6" r="2" fill="#3f9a63" opacity=".33"/>
<circle cx="349.0" cy="184.9" r="2" fill="#3f9a63" opacity=".33"/>
<circle cx="350.8" cy="194.2" r="2" fill="#3f9a63" opacity=".33"/>
<circle cx="351.0" cy="192.6" r="2" fill="#3f9a63" opacity=".33"/>
<circle cx="354.6" cy="190.8" r="2" fill="#3f9a63" opacity=".33"/>
<circle cx="356.3" cy="189.2" r="2" fill="#3f9a63" opacity=".33"/>
<circle cx="360.5" cy="187.4" r="2" fill="#3f9a63" opacity=".33"/>
<circle cx="361.3" cy="185.8" r="2" fill="#3f9a63" opacity=".33"/>
<circle cx="363.5" cy="195.1" r="2" fill="#3f9a63" opacity=".33"/>
<circle cx="364.3" cy="193.4" r="2" fill="#3f9a63" opacity=".33"/>
<circle cx="364.6" cy="191.7" r="2" fill="#3f9a63" opacity=".33"/>
<circle cx="364.7" cy="190.0" r="2" fill="#3f9a63" opacity=".33"/>
<circle cx="364.9" cy="188.3" r="2" fill="#3f9a63" opacity=".33"/>
<circle cx="371.0" cy="186.6" r="2" fill="#3f9a63" opacity=".33"/>
<circle cx="371.3" cy="184.9" r="2" fill="#3f9a63" opacity=".33"/>
<circle cx="373.0" cy="194.2" r="2" fill="#3f9a63" opacity=".33"/>
<circle cx="375.2" cy="192.6" r="2" fill="#3f9a63" opacity=".33"/>
<circle cx="376.5" cy="190.8" r="2" fill="#3f9a63" opacity=".33"/>
<circle cx="381.3" cy="189.2" r="2" fill="#3f9a63" opacity=".33"/>
<circle cx="381.7" cy="187.4" r="2" fill="#3f9a63" opacity=".33"/>
<circle cx="384.1" cy="185.8" r="2" fill="#3f9a63" opacity=".33"/>
<circle cx="384.4" cy="195.1" r="2" fill="#3f9a63" opacity=".33"/>
<circle cx="384.7" cy="193.4" r="2" fill="#3f9a63" opacity=".33"/>
<circle cx="389.6" cy="191.7" r="2" fill="#3f9a63" opacity=".33"/>
<circle cx="391.6" cy="190.0" r="2" fill="#3f9a63" opacity=".33"/>
<circle cx="392.5" cy="188.3" r="2" fill="#3f9a63" opacity=".33"/>
<circle cx="394.4" cy="186.6" r="2" fill="#3f9a63" opacity=".33"/>
<circle cx="396.7" cy="184.9" r="2" fill="#3f9a63" opacity=".33"/>
<circle cx="397.0" cy="194.2" r="2" fill="#3f9a63" opacity=".33"/>
<circle cx="402.1" cy="192.6" r="2" fill="#3f9a63" opacity=".33"/>
<circle cx="402.8" cy="190.8" r="2" fill="#3f9a63" opacity=".33"/>
<circle cx="404.3" cy="189.2" r="2" fill="#3f9a63" opacity=".33"/>
<circle cx="406.8" cy="187.4" r="2" fill="#3f9a63" opacity=".33"/>
<circle cx="407.0" cy="185.8" r="2" fill="#3f9a63" opacity=".33"/>
<circle cx="407.0" cy="195.1" r="2" fill="#3f9a63" opacity=".33"/>
<circle cx="410.8" cy="193.4" r="2" fill="#3f9a63" opacity=".33"/>
<circle cx="419.2" cy="191.7" r="2" fill="#3f9a63" opacity=".33"/>
<circle cx="419.6" cy="190.0" r="2" fill="#3f9a63" opacity=".33"/>
<circle cx="424.8" cy="188.3" r="2" fill="#3f9a63" opacity=".33"/>
<circle cx="424.9" cy="186.6" r="2" fill="#3f9a63" opacity=".33"/>
<circle cx="433.4" cy="184.9" r="2" fill="#3f9a63" opacity=".33"/>
<circle cx="434.5" cy="194.2" r="2" fill="#3f9a63" opacity=".33"/>
<circle cx="443.6" cy="192.6" r="2" fill="#3f9a63" opacity=".33"/>
<circle cx="450.6" cy="190.8" r="2" fill="#3f9a63" opacity=".33"/>
<circle cx="451.2" cy="189.2" r="2" fill="#3f9a63" opacity=".33"/>
<circle cx="458.1" cy="187.4" r="2" fill="#3f9a63" opacity=".33"/>
<circle cx="461.2" cy="185.8" r="2" fill="#3f9a63" opacity=".33"/>
<circle cx="464.1" cy="195.1" r="2" fill="#3f9a63" opacity=".33"/>
<circle cx="470.6" cy="193.4" r="2" fill="#3f9a63" opacity=".33"/>
<circle cx="470.6" cy="191.7" r="2" fill="#3f9a63" opacity=".33"/>
<circle cx="475.0" cy="190.0" r="2" fill="#3f9a63" opacity=".33"/>
<circle cx="485.4" cy="188.3" r="2" fill="#3f9a63" opacity=".33"/>
<circle cx="488.7" cy="186.6" r="2" fill="#3f9a63" opacity=".33"/>
<circle cx="491.7" cy="184.9" r="2" fill="#3f9a63" opacity=".33"/>
<circle cx="492.3" cy="194.2" r="2" fill="#3f9a63" opacity=".33"/>
<circle cx="499.0" cy="192.6" r="2" fill="#3f9a63" opacity=".33"/>
<circle cx="503.2" cy="190.8" r="2" fill="#3f9a63" opacity=".33"/>
<circle cx="504.1" cy="189.2" r="2" fill="#3f9a63" opacity=".33"/>
<circle cx="507.9" cy="187.4" r="2" fill="#3f9a63" opacity=".33"/>
<circle cx="518.7" cy="185.8" r="2" fill="#3f9a63" opacity=".33"/>
<circle cx="519.2" cy="195.1" r="2" fill="#3f9a63" opacity=".33"/>
<circle cx="519.3" cy="193.4" r="2" fill="#3f9a63" opacity=".33"/>
<circle cx="529.8" cy="191.7" r="2" fill="#3f9a63" opacity=".33"/>
<circle cx="545.0" cy="190.0" r="2" fill="#3f9a63" opacity=".33"/>
<circle cx="547.6" cy="188.3" r="2" fill="#3f9a63" opacity=".33"/>
<circle cx="610.1" cy="186.6" r="2" fill="#3f9a63" opacity=".33"/>
<circle cx="680.8" cy="184.9" r="2" fill="#3f9a63" opacity=".33"/>
<circle cx="701.3" cy="194.2" r="2" fill="#3f9a63" opacity=".33"/>
<circle cx="707.1" cy="192.6" r="2" fill="#3f9a63" opacity=".33"/>
<circle cx="721.4" cy="190.8" r="2" fill="#3f9a63" opacity=".33"/>
<circle cx="764.7" cy="189.2" r="2" fill="#3f9a63" opacity=".33"/>
<circle cx="800.6" cy="187.4" r="2" fill="#3f9a63" opacity=".33"/>
<circle cx="831.5" cy="185.8" r="2" fill="#3f9a63" opacity=".33"/>
<rect x="291.8" y="181.5" width="119.1" height="17" fill="#3f9a63" fill-opacity=".18" stroke="#3f9a63" stroke-width="1.1" rx="2"/>
<line x1="346.9" y1="180.0" x2="346.9" y2="200.0" stroke="#3f9a63" stroke-width="2.6"/>
<line x1="831.5" y1="184.0" x2="831.5" y2="196.0" stroke="#3f9a63" stroke-width="1.6"/>
<text x="823.5" y="194.0" font-size="11.5" fill="#3f9a63" text-anchor="end" stroke="#fff" stroke-width="3.4" paint-order="stroke" >CV 34%  ·  worst 92.5 ms (2.49×)</text>
<text x="154" y="264.0" font-size="13.5" fill="#1d2027" text-anchor="end" >LSD</text>
<text x="154" y="279.0" font-size="11" fill="#5b6270" text-anchor="end">median 224 ms</text>
<line x1="220.6" y1="260.0" x2="696.1" y2="260.0" stroke="#b8842f" stroke-width="1.2" opacity=".55"/>
<circle cx="220.6" cy="254.9" r="2" fill="#b8842f" opacity=".33"/>
<circle cx="221.9" cy="264.2" r="2" fill="#b8842f" opacity=".33"/>
<circle cx="222.1" cy="262.6" r="2" fill="#b8842f" opacity=".33"/>
<circle cx="232.1" cy="260.9" r="2" fill="#b8842f" opacity=".33"/>
<circle cx="248.5" cy="259.1" r="2" fill="#b8842f" opacity=".33"/>
<circle cx="248.6" cy="257.4" r="2" fill="#b8842f" opacity=".33"/>
<circle cx="252.6" cy="255.8" r="2" fill="#b8842f" opacity=".33"/>
<circle cx="255.2" cy="265.1" r="2" fill="#b8842f" opacity=".33"/>
<circle cx="259.0" cy="263.4" r="2" fill="#b8842f" opacity=".33"/>
<circle cx="259.2" cy="261.7" r="2" fill="#b8842f" opacity=".33"/>
<circle cx="261.7" cy="260.0" r="2" fill="#b8842f" opacity=".33"/>
<circle cx="261.7" cy="258.3" r="2" fill="#b8842f" opacity=".33"/>
<circle cx="264.5" cy="256.6" r="2" fill="#b8842f" opacity=".33"/>
<circle cx="265.3" cy="254.9" r="2" fill="#b8842f" opacity=".33"/>
<circle cx="265.6" cy="264.2" r="2" fill="#b8842f" opacity=".33"/>
<circle cx="267.7" cy="262.6" r="2" fill="#b8842f" opacity=".33"/>
<circle cx="268.7" cy="260.9" r="2" fill="#b8842f" opacity=".33"/>
<circle cx="271.6" cy="259.1" r="2" fill="#b8842f" opacity=".33"/>
<circle cx="271.8" cy="257.4" r="2" fill="#b8842f" opacity=".33"/>
<circle cx="272.2" cy="255.8" r="2" fill="#b8842f" opacity=".33"/>
<circle cx="272.8" cy="265.1" r="2" fill="#b8842f" opacity=".33"/>
<circle cx="277.5" cy="263.4" r="2" fill="#b8842f" opacity=".33"/>
<circle cx="279.1" cy="261.7" r="2" fill="#b8842f" opacity=".33"/>
<circle cx="279.5" cy="260.0" r="2" fill="#b8842f" opacity=".33"/>
<circle cx="279.9" cy="258.3" r="2" fill="#b8842f" opacity=".33"/>
<circle cx="281.8" cy="256.6" r="2" fill="#b8842f" opacity=".33"/>
<circle cx="283.0" cy="254.9" r="2" fill="#b8842f" opacity=".33"/>
<circle cx="283.1" cy="264.2" r="2" fill="#b8842f" opacity=".33"/>
<circle cx="283.4" cy="262.6" r="2" fill="#b8842f" opacity=".33"/>
<circle cx="283.5" cy="260.9" r="2" fill="#b8842f" opacity=".33"/>
<circle cx="283.6" cy="259.1" r="2" fill="#b8842f" opacity=".33"/>
<circle cx="284.3" cy="257.4" r="2" fill="#b8842f" opacity=".33"/>
<circle cx="285.4" cy="255.8" r="2" fill="#b8842f" opacity=".33"/>
<circle cx="288.7" cy="265.1" r="2" fill="#b8842f" opacity=".33"/>
<circle cx="288.7" cy="263.4" r="2" fill="#b8842f" opacity=".33"/>
<circle cx="289.1" cy="261.7" r="2" fill="#b8842f" opacity=".33"/>
<circle cx="290.2" cy="260.0" r="2" fill="#b8842f" opacity=".33"/>
<circle cx="292.9" cy="258.3" r="2" fill="#b8842f" opacity=".33"/>
<circle cx="293.0" cy="256.6" r="2" fill="#b8842f" opacity=".33"/>
<circle cx="294.6" cy="254.9" r="2" fill="#b8842f" opacity=".33"/>
<circle cx="297.0" cy="264.2" r="2" fill="#b8842f" opacity=".33"/>
<circle cx="297.2" cy="262.6" r="2" fill="#b8842f" opacity=".33"/>
<circle cx="299.6" cy="260.9" r="2" fill="#b8842f" opacity=".33"/>
<circle cx="300.4" cy="259.1" r="2" fill="#b8842f" opacity=".33"/>
<circle cx="301.4" cy="257.4" r="2" fill="#b8842f" opacity=".33"/>
<circle cx="302.2" cy="255.8" r="2" fill="#b8842f" opacity=".33"/>
<circle cx="303.4" cy="265.1" r="2" fill="#b8842f" opacity=".33"/>
<circle cx="304.0" cy="263.4" r="2" fill="#b8842f" opacity=".33"/>
<circle cx="306.1" cy="261.7" r="2" fill="#b8842f" opacity=".33"/>
<circle cx="306.3" cy="260.0" r="2" fill="#b8842f" opacity=".33"/>
<circle cx="306.4" cy="258.3" r="2" fill="#b8842f" opacity=".33"/>
<circle cx="306.9" cy="256.6" r="2" fill="#b8842f" opacity=".33"/>
<circle cx="307.9" cy="254.9" r="2" fill="#b8842f" opacity=".33"/>
<circle cx="308.1" cy="264.2" r="2" fill="#b8842f" opacity=".33"/>
<circle cx="308.2" cy="262.6" r="2" fill="#b8842f" opacity=".33"/>
<circle cx="310.0" cy="260.9" r="2" fill="#b8842f" opacity=".33"/>
<circle cx="311.0" cy="259.1" r="2" fill="#b8842f" opacity=".33"/>
<circle cx="312.3" cy="257.4" r="2" fill="#b8842f" opacity=".33"/>
<circle cx="312.7" cy="255.8" r="2" fill="#b8842f" opacity=".33"/>
<circle cx="313.5" cy="265.1" r="2" fill="#b8842f" opacity=".33"/>
<circle cx="317.3" cy="263.4" r="2" fill="#b8842f" opacity=".33"/>
<circle cx="319.3" cy="261.7" r="2" fill="#b8842f" opacity=".33"/>
<circle cx="322.1" cy="260.0" r="2" fill="#b8842f" opacity=".33"/>
<circle cx="323.9" cy="258.3" r="2" fill="#b8842f" opacity=".33"/>
<circle cx="330.0" cy="256.6" r="2" fill="#b8842f" opacity=".33"/>
<circle cx="330.1" cy="254.9" r="2" fill="#b8842f" opacity=".33"/>
<circle cx="333.6" cy="264.2" r="2" fill="#b8842f" opacity=".33"/>
<circle cx="335.4" cy="262.6" r="2" fill="#b8842f" opacity=".33"/>
<circle cx="336.2" cy="260.9" r="2" fill="#b8842f" opacity=".33"/>
<circle cx="338.8" cy="259.1" r="2" fill="#b8842f" opacity=".33"/>
<circle cx="340.0" cy="257.4" r="2" fill="#b8842f" opacity=".33"/>
<circle cx="341.4" cy="255.8" r="2" fill="#b8842f" opacity=".33"/>
<circle cx="341.4" cy="265.1" r="2" fill="#b8842f" opacity=".33"/>
<circle cx="342.5" cy="263.4" r="2" fill="#b8842f" opacity=".33"/>
<circle cx="345.3" cy="261.7" r="2" fill="#b8842f" opacity=".33"/>
<circle cx="348.5" cy="260.0" r="2" fill="#b8842f" opacity=".33"/>
<circle cx="350.4" cy="258.3" r="2" fill="#b8842f" opacity=".33"/>
<circle cx="352.0" cy="256.6" r="2" fill="#b8842f" opacity=".33"/>
<circle cx="353.1" cy="254.9" r="2" fill="#b8842f" opacity=".33"/>
<circle cx="353.2" cy="264.2" r="2" fill="#b8842f" opacity=".33"/>
<circle cx="353.8" cy="262.6" r="2" fill="#b8842f" opacity=".33"/>
<circle cx="356.6" cy="260.9" r="2" fill="#b8842f" opacity=".33"/>
<circle cx="357.2" cy="259.1" r="2" fill="#b8842f" opacity=".33"/>
<circle cx="358.7" cy="257.4" r="2" fill="#b8842f" opacity=".33"/>
<circle cx="359.8" cy="255.8" r="2" fill="#b8842f" opacity=".33"/>
<circle cx="360.0" cy="265.1" r="2" fill="#b8842f" opacity=".33"/>
<circle cx="361.6" cy="263.4" r="2" fill="#b8842f" opacity=".33"/>
<circle cx="362.2" cy="261.7" r="2" fill="#b8842f" opacity=".33"/>
<circle cx="362.4" cy="260.0" r="2" fill="#b8842f" opacity=".33"/>
<circle cx="363.5" cy="258.3" r="2" fill="#b8842f" opacity=".33"/>
<circle cx="364.1" cy="256.6" r="2" fill="#b8842f" opacity=".33"/>
<circle cx="365.1" cy="254.9" r="2" fill="#b8842f" opacity=".33"/>
<circle cx="365.4" cy="264.2" r="2" fill="#b8842f" opacity=".33"/>
<circle cx="366.3" cy="262.6" r="2" fill="#b8842f" opacity=".33"/>
<circle cx="371.6" cy="260.9" r="2" fill="#b8842f" opacity=".33"/>
<circle cx="372.8" cy="259.1" r="2" fill="#b8842f" opacity=".33"/>
<circle cx="373.3" cy="257.4" r="2" fill="#b8842f" opacity=".33"/>
<circle cx="373.3" cy="255.8" r="2" fill="#b8842f" opacity=".33"/>
<circle cx="376.4" cy="265.1" r="2" fill="#b8842f" opacity=".33"/>
<circle cx="376.6" cy="263.4" r="2" fill="#b8842f" opacity=".33"/>
<circle cx="377.8" cy="261.7" r="2" fill="#b8842f" opacity=".33"/>
<circle cx="380.6" cy="260.0" r="2" fill="#b8842f" opacity=".33"/>
<circle cx="381.6" cy="258.3" r="2" fill="#b8842f" opacity=".33"/>
<circle cx="386.6" cy="256.6" r="2" fill="#b8842f" opacity=".33"/>
<circle cx="390.2" cy="254.9" r="2" fill="#b8842f" opacity=".33"/>
<circle cx="394.2" cy="264.2" r="2" fill="#b8842f" opacity=".33"/>
<circle cx="398.0" cy="262.6" r="2" fill="#b8842f" opacity=".33"/>
<circle cx="398.2" cy="260.9" r="2" fill="#b8842f" opacity=".33"/>
<circle cx="403.0" cy="259.1" r="2" fill="#b8842f" opacity=".33"/>
<circle cx="404.1" cy="257.4" r="2" fill="#b8842f" opacity=".33"/>
<circle cx="404.6" cy="255.8" r="2" fill="#b8842f" opacity=".33"/>
<circle cx="405.1" cy="265.1" r="2" fill="#b8842f" opacity=".33"/>
<circle cx="406.2" cy="263.4" r="2" fill="#b8842f" opacity=".33"/>
<circle cx="406.3" cy="261.7" r="2" fill="#b8842f" opacity=".33"/>
<circle cx="408.8" cy="260.0" r="2" fill="#b8842f" opacity=".33"/>
<circle cx="408.8" cy="258.3" r="2" fill="#b8842f" opacity=".33"/>
<circle cx="409.2" cy="256.6" r="2" fill="#b8842f" opacity=".33"/>
<circle cx="411.0" cy="254.9" r="2" fill="#b8842f" opacity=".33"/>
<circle cx="412.3" cy="264.2" r="2" fill="#b8842f" opacity=".33"/>
<circle cx="414.5" cy="262.6" r="2" fill="#b8842f" opacity=".33"/>
<circle cx="415.9" cy="260.9" r="2" fill="#b8842f" opacity=".33"/>
<circle cx="417.2" cy="259.1" r="2" fill="#b8842f" opacity=".33"/>
<circle cx="418.6" cy="257.4" r="2" fill="#b8842f" opacity=".33"/>
<circle cx="426.0" cy="255.8" r="2" fill="#b8842f" opacity=".33"/>
<circle cx="426.3" cy="265.1" r="2" fill="#b8842f" opacity=".33"/>
<circle cx="430.8" cy="263.4" r="2" fill="#b8842f" opacity=".33"/>
<circle cx="433.1" cy="261.7" r="2" fill="#b8842f" opacity=".33"/>
<circle cx="435.3" cy="260.0" r="2" fill="#b8842f" opacity=".33"/>
<circle cx="435.9" cy="258.3" r="2" fill="#b8842f" opacity=".33"/>
<circle cx="438.7" cy="256.6" r="2" fill="#b8842f" opacity=".33"/>
<circle cx="441.9" cy="254.9" r="2" fill="#b8842f" opacity=".33"/>
<circle cx="446.5" cy="264.2" r="2" fill="#b8842f" opacity=".33"/>
<circle cx="456.0" cy="262.6" r="2" fill="#b8842f" opacity=".33"/>
<circle cx="456.6" cy="260.9" r="2" fill="#b8842f" opacity=".33"/>
<circle cx="456.7" cy="259.1" r="2" fill="#b8842f" opacity=".33"/>
<circle cx="464.9" cy="257.4" r="2" fill="#b8842f" opacity=".33"/>
<circle cx="465.1" cy="255.8" r="2" fill="#b8842f" opacity=".33"/>
<circle cx="469.5" cy="265.1" r="2" fill="#b8842f" opacity=".33"/>
<circle cx="479.7" cy="263.4" r="2" fill="#b8842f" opacity=".33"/>
<circle cx="480.2" cy="261.7" r="2" fill="#b8842f" opacity=".33"/>
<circle cx="484.6" cy="260.0" r="2" fill="#b8842f" opacity=".33"/>
<circle cx="503.5" cy="258.3" r="2" fill="#b8842f" opacity=".33"/>
<circle cx="540.9" cy="256.6" r="2" fill="#b8842f" opacity=".33"/>
<circle cx="543.9" cy="254.9" r="2" fill="#b8842f" opacity=".33"/>
<circle cx="546.2" cy="264.2" r="2" fill="#b8842f" opacity=".33"/>
<circle cx="581.9" cy="262.6" r="2" fill="#b8842f" opacity=".33"/>
<circle cx="619.0" cy="260.9" r="2" fill="#b8842f" opacity=".33"/>
<circle cx="629.5" cy="259.1" r="2" fill="#b8842f" opacity=".33"/>
<circle cx="648.3" cy="257.4" r="2" fill="#b8842f" opacity=".33"/>
<circle cx="696.1" cy="255.8" r="2" fill="#b8842f" opacity=".33"/>
<rect x="292.9" y="251.5" width="113.3" height="17" fill="#b8842f" fill-opacity=".18" stroke="#b8842f" stroke-width="1.1" rx="2"/>
<line x1="346.9" y1="250.0" x2="346.9" y2="270.0" stroke="#b8842f" stroke-width="2.6"/>
<line x1="696.1" y1="254.0" x2="696.1" y2="266.0" stroke="#b8842f" stroke-width="1.6"/>
<text x="704.1" y="264.0" font-size="11.5" fill="#b8842f" text-anchor="start" stroke="#fff" stroke-width="3.4" paint-order="stroke" >CV 26%  ·  worst 465 ms (2.07×)</text>
</svg>